<svg id="Ebene_1" data-name="Ebene 1" xmlns="http://www.w3.org/2000/svg" viewBox="0 0 227.62 53.98"><defs><style>.cls-1,.cls-2{fill:#231f20;}.cls-2{stroke:#231f20;stroke-linecap:round;stroke-linejoin:round;stroke-width:0.5px;}</style></defs><title>logo</title><path class="cls-1" d="M192.5,26.23c0,.54,0,1.06-.36,1.27a1.77,1.77,0,0,1-1.67-.71,2,2,0,0,1,.7-1.37A6.29,6.29,0,0,1,192.5,26.23Z" transform="translate(-1.79 -1.13)"/><path class="cls-2" d="M229,26.66a4.18,4.18,0,0,0-1.6-2.31,7,7,0,0,0-6-1.13,11.78,11.78,0,0,0-5,2.87c-.08.24-.2.45-.27.7,1.46-.85,2.61-2.29,4.78-2.54a5.75,5.75,0,0,1,5.39,1.91c1.14,1.39.62,4.54-.24,5.85a12.48,12.48,0,0,1-3.44,4c-5.66,4.24-13.35,6.45-21.47,8.22-24.54,5-54.36,5-83.58,5.49-11.15.17-22.32-.11-33-.37s-21.32-.9-31.43-2C46.45,46.65,40,45.85,34.19,44a53.75,53.75,0,0,0,8-15.71c0-.1,0-.18.14-.2C49,25.48,55,22.14,59.64,17.4c2.07-2.38,4.51-5,4.85-9.16.37-4.62-2.43-7-7.13-6.86a13.48,13.48,0,0,0-8.12,3.45c-6,5.44-9.12,13.79-11.43,22.93-.06,0,0,.09-.11.07A65.19,65.19,0,0,1,23.53,29.5c-5.07,0-9.87-.79-13.24-2.61C8.09,25.63,6.07,24,5.78,20.84c-.33-3.45,1.54-5.55,3.41-7.12,3-2.25,7.25-3.31,12.3-3.54s10.19.61,14.68,1.07c.42-.17.43-1,.13-1.24C30,8.8,21.33,8.2,14.64,9.44a20.42,20.42,0,0,0-8.5,3.31,9.74,9.74,0,0,0-3.41,4A9.37,9.37,0,0,0,2.43,23c1.18,3.59,4.51,5.45,8.19,6.59,7.55,2.32,19,1.64,26.52,0-.71,2.36-1.5,4.8-2.28,7.15A22.26,22.26,0,0,1,32,43.21h-.06A22.3,22.3,0,0,0,20.49,42a18.76,18.76,0,0,0-9.4,3.75,4.06,4.06,0,0,0-1.57,2.81,4.79,4.79,0,0,0,1.17,3.21,10.06,10.06,0,0,0,5.82,2.91A12.28,12.28,0,0,0,24,53.81,15.64,15.64,0,0,0,28.91,50c1.43-1.49,2.6-3.25,4.15-4.62a47.06,47.06,0,0,0,11.26,3.08c4,.74,8.25,1.33,12.54,1.84,8.59,1,17.59,1.67,26.72,2,18.35.68,38,.73,56.2-.23s36.06-2.23,52.56-4.88a129.4,129.4,0,0,0,23.17-5.55A33.93,33.93,0,0,0,225,36.76a11.17,11.17,0,0,0,3.31-3.88A11.24,11.24,0,0,0,229,26.66ZM51.85,6.23C53.44,4.53,55.17,3,58.2,2.69c3,0,4.34,1.52,4.25,4.55a15.66,15.66,0,0,1-3.21,6.52,40.53,40.53,0,0,1-7.19,7.38,28.7,28.7,0,0,1-9.33,5.25C44.85,18.9,47.38,11.5,51.85,6.23ZM25.8,50.8c-2,1.49-4.9,3.18-8.56,2.07-2-.52-3.59-1.42-3.91-3.61a5,5,0,0,1,.24-1.9A7.94,7.94,0,0,1,17,44.75a13.26,13.26,0,0,1,4.78-1.37,24.25,24.25,0,0,1,9.43,1.54A23.83,23.83,0,0,1,25.8,50.8Z" transform="translate(-1.79 -1.13)"/><path class="cls-1" d="M98.35,31.14c-.77,1.12-1.47,2.31-2.3,3.38S94.4,36.65,93,37.13a7.06,7.06,0,0,0,.54-.77,2.3,2.3,0,0,0,.1-1.17c-.39-1.7-2.81-2.11-3.35-3.65a1.2,1.2,0,0,1,.3-1c.56-.56,2.3-.73,2.41.2a1.06,1.06,0,0,1-.17.67c-.09.16-.36.27-.26.47a1.8,1.8,0,0,0,1.84-1.07,1.13,1.13,0,0,0-.34-1A4.35,4.35,0,0,0,89,31.11a2.49,2.49,0,0,0-.26.77C88,32.93,87.22,34,86.42,35c-.42.49-.8,1-1.24,1.5a2.84,2.84,0,0,1-1.64,1.11.53.53,0,0,1-.36-.34A17.9,17.9,0,0,1,84,33.72a28.77,28.77,0,0,0,1-3.55,4.72,4.72,0,0,0-3.61-.47,7.27,7.27,0,0,0-4.54,4c-.59.73-1.12,1.51-1.74,2.21s-1.08,1.58-2.28,1.7a.78.78,0,0,1-.5-.53,11.51,11.51,0,0,1,1.27-3.71c.24-.6.54-1.13.77-1.74a7.38,7.38,0,0,0,.74-1.71,16.91,16.91,0,0,0-1.84.61c-.56.17-1.69.53-1.94-.07s.19-.8.23-1.17c-1.07.11-1.74,1.09-1.57,2.44-.74,1.09-1.49,2.16-2.27,3.21-.41.49-.8,1-1.24,1.5a2.87,2.87,0,0,1-1.67,1.11.63.63,0,0,1-.4-.44,37.91,37.91,0,0,1,1.74-5.55,9.39,9.39,0,0,0,.5-1.87c-.44-.17-1,.12-1.41.17-.52.42-.64,1.11-.93,1.67A27.2,27.2,0,0,1,61,36.06a4.25,4.25,0,0,1-2,1.53.61.61,0,0,1-.41-.4,17.39,17.39,0,0,1,1.11-3.81c.21-.61.43-1.22.63-1.84a7.57,7.57,0,0,0,.54-1.87,4.59,4.59,0,0,0-1.64.23,14.86,14.86,0,0,0-.67,1.88c-.76,1.08-1.54,2.16-2.34,3.21-.4.51-.82,1-1.27,1.5a2.81,2.81,0,0,1-1.64,1.14.62.62,0,0,1-.37-.34,17.75,17.75,0,0,1,.87-3.57,26,26,0,0,0,1-3.55c-1.65-1.19-4.64-.47-5.78.57s-2.75,2.58-2.91,4.75a4.07,4.07,0,0,0,.4,2.17,2,2,0,0,0,1.74.9c2.13-.4,2.79-2.44,3.85-3.81-.28,1-1.26,3.12,0,3.71a1.7,1.7,0,0,0,1.17.07,5.74,5.74,0,0,0,2.64-2.21c.8-1,1.46-2,2.11-2.71-.27,1.23-1.57,3.29-.67,4.65.08.07.21.11.27.2,2,.46,3-1.22,4-2.2.83-1,1.62-2.21,2.37-3.18a13.09,13.09,0,0,0-1.13,4.38c.06.18.13.36.2.53a1.41,1.41,0,0,0,1.13.61c.13-.05.31,0,.44-.07A8.78,8.78,0,0,0,68,35.59a23.83,23.83,0,0,0,2.41-3.48c1.19.31,2.11-.43,2.91-.84A23.87,23.87,0,0,0,71.67,34a6.53,6.53,0,0,0-1,3.35c.06.2.13.41.2.6a3.68,3.68,0,0,0,.54.5c.19,0,.35.12.53.17,2.55,0,3.17-2.08,4.41-3.25-.16,1.82.41,3.19,2.14,3.21,2.09-.46,2.74-2.36,3.82-3.84,0,0,0,0,0,.07-.22,1-.85,2.08-.47,3.24a2,2,0,0,0,.54.47c.19,0,.42.06.63.1,1.8-.28,2.48-1.68,3.48-2.74.8-1.06,1.6-2.11,2.38-3.18.73,1.6,2.92,1.75,3.31,3.71-.07,1.37-1.68,1.86-3,1.44a1,1,0,0,1-.5-.67c0-.52.37-.65.53-1-1-.33-2.33,0-2.21,1.2a2.57,2.57,0,0,0,.24.5c.9,1,3.52.84,4.68.17A6.39,6.39,0,0,0,96,35.42a16.46,16.46,0,0,0,1.48-1.91C97.85,32.83,98.58,32.19,98.35,31.14Zm-48.78,6c-.33.2-.57.5-1.1.5s-.64-.53-.7-1.07A7.58,7.58,0,0,1,49.14,33a7.52,7.52,0,0,1,2.37-2.64,4.26,4.26,0,0,1,.54-.17c.05,0,.06,0,.1,0a2,2,0,0,1,1.3.37A20.67,20.67,0,0,1,49.57,37.19Zm30.23,0a2,2,0,0,1-1.14.53,1,1,0,0,1-.7-1.07,7,7,0,0,1,1.37-3.71,7.79,7.79,0,0,1,2.44-2.61c.17,0,.29-.11.47-.13s.06,0,.1,0a1.74,1.74,0,0,1,1.3.4A21.68,21.68,0,0,1,79.8,37.16Z" transform="translate(-1.79 -1.13)"/><path class="cls-1" d="M123.53,24.59a6.72,6.72,0,0,0-3.14-2.71c.12-.22.43-.26.47-.57-.44-.43-.92.1-1.34.27-3.58-1.24-9.56-1.14-12.47.6-1.35.91-3,2-3.11,4.11-.11,2.45,1.83,3.7,3.74,4.32a16.78,16.78,0,0,0,7.26.33,16.06,16.06,0,0,1-.64,1.81c-.34,0-.78-.08-1.2-.14s-.9-.27-.94.2c.17.26.57.24.91.3s.69.15,1,.2c-.73,1.93-1.47,3.86-3.21,4.79-1.58.75-4.47.19-3.91-1.88a1.72,1.72,0,0,1,.57-.6,4,4,0,0,1,1-.37c.37-.07.92.07,1.07-.3,0-.37-.53-.21-.84-.27a5.4,5.4,0,0,0-2.67.64,2.81,2.81,0,0,0-.57.67,1.68,1.68,0,0,0,0,1,4,4,0,0,0,.47.73c1.21,1.41,4.74,1.44,6.28.3a9.86,9.86,0,0,0,3.61-4.65c3.7-.19,6.3-1.48,7.59-4.07A5.71,5.71,0,0,0,123.53,24.59Zm-8.42,5.68c-3.07.61-7,.32-8.53-1.47-1.5-1.32-.93-4.44.53-5.32a9.39,9.39,0,0,1,5.72-2.1,16.64,16.64,0,0,1,6.09.73c-.53.72-1.12,1.38-1.61,2.14a14.25,14.25,0,0,0-7.29.81c-.24.09-.65.24-.46.6.55.11,1.09-.35,1.63-.47a12.93,12.93,0,0,1,5.85-.37A43.68,43.68,0,0,0,115.11,30.27Zm3.37-4.95a2.07,2.07,0,0,1,1.21,1.57c-.07,1.76-1.2,2.47-2.61,2.88.44-1.47.87-3,1.3-4.45Zm-2.37,7.49c.25-.76.53-1.5.77-2.27,1.83-.52,3.62-1.08,3.84-3.21-.1-1.49-1.07-2.09-2.1-2.64a5.69,5.69,0,0,1,1.2-2.21s0,0,0,0a5,5,0,0,1,2.78,4C122.66,30.81,120.11,32.53,116.11,32.81Z" transform="translate(-1.79 -1.13)"/><path class="cls-1" d="M213.94,31.37c-.18.05-.24.29-.34.44-.32.52-.7,1-1,1.54-.52.62-1,1.29-1.54,1.87-1.21,1.2-2.34,2.47-4.51,2.71a1.9,1.9,0,0,1-1.87-2.18,11.58,11.58,0,0,0,3.57-1.63c1-.78,2.07-1.41,2-3.18,0-.17-.11-.34-.17-.5a2.2,2.2,0,0,0-2.14-1c-2.47.16-4.08,2.57-4.81,4.45-1.49,1.7-2.76,3.61-5.58,4-2,.11-2.22-2.19-1.71-3.87a6.88,6.88,0,0,1,2.38-3.68,1.78,1.78,0,0,1,1.1-.27.86.86,0,0,1,.57.64c.08.95-.48,1.26-.94,1.67.57.68,1.92.2,2.21-.4a2,2,0,0,0,.2-1.07c-.23-1-1.05-1.49-2.38-1.44-2.48.43-3.78,2.05-4.81,3.94a14.21,14.21,0,0,1-1.91,2.48c-.73.74-1.24,1.69-2.57,1.84a.76.76,0,0,1-.4-.37,4.81,4.81,0,0,1,.37-2c.4-1.28.79-2.51,1.2-3.74a7,7,0,0,0,.53-1.91,3.75,3.75,0,0,0-1.47.2,6,6,0,0,0-.7,1.81s0,0,0,.06c-.67.89-1.28,1.84-2,2.71s-1.16,2-2.61,2.07a1.29,1.29,0,0,1-.8-1,11.4,11.4,0,0,0,2-4.07,2.3,2.3,0,0,0,0-1.71c-.26,0-.46.21-.63.37a8.34,8.34,0,0,0-1.54,1.77,4.79,4.79,0,0,0-.57,3.58c-.45.66-1.22,2.13-2.31,2.1-1.3,0-1.05-2.55-.93-3.87a22.83,22.83,0,0,0,.4-4,4.24,4.24,0,0,0-1.51.37,4.55,4.55,0,0,0-.2,1.3.06.06,0,0,0,0,.07,62.86,62.86,0,0,1-3.81,5c-.52.47-.87,1.12-1.81,1.17a.8.8,0,0,1-.5-.5c.05-1.48.81-2.53,1.24-3.74.28-.56.52-1.15.8-1.71a11.79,11.79,0,0,0,.74-1.74c-1.11.17-2.24,1.09-3.62.77-.5-.37,0-1,0-1.43a2,2,0,0,0-1.44,2.64,24.27,24.27,0,0,1-2.84,3.67,6.72,6.72,0,0,1-4.18,2.38,1.89,1.89,0,0,1-1.87-2.18,11.81,11.81,0,0,0,3.57-1.63c1-.77,2.06-1.43,2-3.18a2,2,0,0,0-2.37-1.47c-2.36.18-3.78,2.35-4.61,4-1.08,1.4-2,3-3.81,3.62a2.21,2.21,0,0,0,.66-1.78c-.42-1.92-2.56-2.13-3.34-3.71-.41-1.5,2.14-2.05,2.68-.93.1.63-.4.82-.44,1.2.93.06,2.25-.61,1.77-1.74a1.5,1.5,0,0,0-1.33-.67c-2.17-.15-3.75.78-4.25,2.31-.59.83-1.25,1.84-2,2.81A8.29,8.29,0,0,1,147.5,37a3.69,3.69,0,0,1-2.57-.11c-.59-.13-1.16-.29-1.74-.43,1.56-1.74,3.19-3.4,4.75-5.15.29-.25.53-.56.8-.83s.67-.53.63-1c-.67-.29-.9.42-1.27.66-.64-.11-1.42-.21-2.24-.36-.66-.13-1.69-.49-2.24-.14s-.46,1.42-.83,2c-.7,1-1.39,2.09-2.17,3.11A9.4,9.4,0,0,1,138,37.53a1.34,1.34,0,0,1-.8.2.63.63,0,0,1-.4-.44,11.67,11.67,0,0,1,.77-3.27c.31-1.09.56-2.16.94-3.21a12.25,12.25,0,0,0,1.37,0,1.19,1.19,0,0,0,.13-.6c-.37-.1-1,0-1.34-.07.18-.66.39-1.3.57-2a9.31,9.31,0,0,0,.47-2,3.58,3.58,0,0,0-1.44.24c-.59,1.13-.83,2.6-1.34,3.81h-1.43a.66.66,0,0,0-.17.63,12.72,12.72,0,0,0,1.4,0,6,6,0,0,1-1.13,1.94c-.42.6-.81,1.22-1.27,1.8s-.9,1.16-1.38,1.71-.88,1.16-1.8,1.27a.65.65,0,0,1-.37-.34,4.25,4.25,0,0,1,.44-1.94l1.23-3.71a6.29,6.29,0,0,0,.54-1.87c-.44-.17-1,.12-1.41.17a12.24,12.24,0,0,0-1.27,2.2c-.45.73-.93,1.42-1.4,2.11-1.09,1.24-1.88,2.78-3.54,3.44-.74-.21-.27-1.44-.07-1.9.48-1.53,1-3,1.5-4.48a3.74,3.74,0,0,0,.4-1.54,4.43,4.43,0,0,0-1.6.23c-.51,1.22-.87,2.46-1.27,3.71a10.88,10.88,0,0,0-1,4,1.13,1.13,0,0,0,.57.87,2.48,2.48,0,0,0,1.07.1c2.56-1,3.72-3.5,5.31-5.51,0,0,0,0,0,.06v.07c-.38,1.35-2.11,4.44-.23,5.35a2.07,2.07,0,0,0,1.2-.1,8,8,0,0,0,2.64-2.34c.8-1,1.5-2,2.14-2.81-.3,1.39-1.09,2.76-.8,4.41a1.69,1.69,0,0,0,1.9.91c1.61-.41,2.4-1.62,3.38-2.64A33.51,33.51,0,0,0,143,32.41c.79,0,.58-1,1.27-1.17a7.23,7.23,0,0,1,2.6.4c-1.45,1.56-2.87,3.15-4.34,4.68a.92.92,0,0,0-.47,0,6.36,6.36,0,0,0-.57,1,3,3,0,0,0-.47,1.14c.58.23.88-.33,1.21-.57,1.36.13,2.4.59,3.77.7,1.65-.26,2.56-1.5,3.41-2.57s1.8-2.26,2.58-3.44a2.84,2.84,0,0,0,.33.56c.86.94,2.13,1.46,2.85,2.54.67,1.77-1.53,2.69-3,2a.86.86,0,0,1-.37-.53c-.07-.6.36-.69.5-1.07a1.82,1.82,0,0,0-2.07.46,1.21,1.21,0,0,0,.17,1.31c1,1,3.48.76,4.61.1,2.23-.27,3.4-1.77,4.55-3-.12,2.27.93,3.55,2.81,3.64,2.32.12,3.77-1.34,5-2.3a14.66,14.66,0,0,0,3.15-4.22c1.19.23,2-.46,2.8-.83-.49.77-1,1.57-1.5,2.44a7.18,7.18,0,0,0-1.07,3.61,2.19,2.19,0,0,0,.37.8,2,2,0,0,0,1.6.44c.16-.05.35-.08.5-.14,2.35-1.29,3.54-3.93,5.19-5.81-.18,1.85-.45,4.46.56,5.58a2.07,2.07,0,0,1,.37.27,2.36,2.36,0,0,0,.94.13c1.47-.13,2.44-1.59,3.14-2.47a1.91,1.91,0,0,0,.74.87.85.85,0,0,1,.33.1,3.38,3.38,0,0,0,2.71-1.71c.51-.63,1-1.28,1.44-1.81a12.6,12.6,0,0,0-.91,3.58,1.48,1.48,0,0,0,1.17,1.31A4,4,0,0,0,192,37c.65-.65,1.24-1.34,1.77-1.94-.21,2.9,2.07,4.17,4.68,3.38a11.4,11.4,0,0,0,4.45-3.21c-.06,2.14,1,3.34,2.8,3.44,2.34.13,3.85-1.36,5-2.37A12.17,12.17,0,0,0,213.94,32,1.38,1.38,0,0,0,213.94,31.37Zm-7.29-.63a1.66,1.66,0,0,1,1.8-.5,1.23,1.23,0,0,1,.34.8c-.29,2.46-2,3.49-4.11,4.11A8.06,8.06,0,0,1,206.65,30.74Zm-42.76-.47a1.25,1.25,0,0,1,1.2,0c.09.11.15.26.23.37a3.45,3.45,0,0,1-1,2.87,6.39,6.39,0,0,1-3,1.64C161.56,33.34,162.38,31,163.89,30.27Z" transform="translate(-1.79 -1.13)"/></svg>